<?xml version="1.0" standalone="no"?>
<!DOCTYPE svg PUBLIC "-//W3C//DTD SVG 20010904//EN"
 "http://www.w3.org/TR/2001/REC-SVG-20010904/DTD/svg10.dtd">
<svg version="1.0" xmlns="http://www.w3.org/2000/svg"
 width="432.000000pt" height="432.000000pt" viewBox="0 0 432.000000 432.000000"
 preserveAspectRatio="xMidYMid meet">

<g transform="translate(0.000000,432.000000) scale(0.100000,-0.100000)"
fill="#000000" stroke="none">
<path d="M1770 3793 c-227 -124 -414 -307 -490 -478 -27 -62 -64 -174 -80
-240 -10 -43 -18 -54 -60 -83 -77 -53 -192 -154 -245 -216 -69 -81 -62 -88
105 -120 41 -8 92 -18 113 -21 l39 -6 -6 -67 c-8 -105 -32 -272 -67 -457 -43
-231 -45 -245 -25 -245 9 0 16 -5 16 -11 0 -6 26 -9 69 -8 37 1 73 -1 80 -5 7
-5 15 4 22 23 13 36 29 41 29 8 0 -16 9 -26 30 -34 30 -11 31 -13 25 -65 -4
-29 -19 -78 -34 -108 -22 -45 -35 -59 -74 -77 -29 -14 -56 -37 -73 -63 l-27
-41 22 -29 c18 -26 21 -38 15 -83 -4 -28 -10 -56 -14 -62 -5 -5 -11 -32 -15
-60 -11 -83 -33 -144 -63 -183 -51 -65 -64 -101 -70 -193 -7 -127 -6 -129 97
-193 152 -94 193 -104 261 -61 22 14 42 25 45 25 2 0 26 13 52 29 27 16 65 31
85 34 31 5 40 2 61 -24 14 -17 47 -37 78 -48 64 -23 82 -55 54 -97 -14 -21
-14 -28 -3 -41 11 -13 9 -18 -12 -32 -49 -32 -97 -81 -115 -118 -10 -21 -22
-46 -26 -55 -15 -29 -10 -77 11 -117 69 -137 289 -179 520 -101 52 17 99 36
104 40 5 5 21 7 35 4 14 -3 46 -1 71 5 24 5 46 9 47 8 1 -2 -9 -25 -22 -52
-28 -58 -31 -75 -10 -75 8 0 19 17 26 40 27 91 124 161 240 174 59 7 102 1
254 -38 133 -34 177 -33 253 5 74 36 111 86 94 124 -22 47 -111 91 -202 100
-19 2 -26 2 -15 -1 132 -31 206 -83 190 -133 -3 -11 -30 -36 -60 -57 -51 -35
-60 -37 -127 -37 -64 0 -114 10 -237 49 -9 3 0 12 24 25 80 43 116 71 126 97
6 15 15 35 20 44 6 12 4 18 -9 20 -13 3 -9 10 20 36 33 31 35 36 27 65 -5 18
-9 44 -9 59 0 30 -34 68 -62 68 -10 0 -18 6 -18 13 0 6 -12 -1 -27 -18 -236
-271 -468 -443 -733 -542 -165 -61 -372 -46 -464 35 -45 41 -59 121 -32 186
33 80 143 156 226 156 42 0 144 21 225 47 111 36 246 143 361 288 98 123 168
226 178 265 6 21 4 20 -15 -9 -13 -19 -41 -41 -66 -52 -57 -24 -63 -24 -63 4
0 12 -6 32 -14 43 -14 19 -12 21 22 34 67 23 112 45 112 52 0 11 -24 10 -35
-1 -6 -5 -35 -16 -66 -26 -30 -9 -61 -20 -69 -25 -18 -11 -27 -206 -12 -250
11 -29 9 -34 -30 -76 -22 -24 -44 -44 -49 -44 -5 0 -9 92 -9 204 0 210 1 214
46 314 9 18 13 38 10 45 -2 7 -5 4 -5 -5 -1 -10 -5 -18 -9 -18 -4 0 -13 -15
-20 -32 l-12 -32 -65 64 c-78 77 -86 69 -12 -15 l52 -60 -3 -252 c-3 -243 -4
-253 -23 -253 -10 0 -19 -4 -19 -10 0 -5 -5 -10 -11 -10 -6 0 -25 -6 -42 -14
-18 -8 -63 -24 -102 -36 -38 -12 -79 -25 -90 -30 -134 -51 -254 -65 -185 -22
17 11 19 19 14 74 -3 35 -10 79 -15 99 -8 31 -12 36 -33 32 -20 -4 -26 -12
-29 -42 -3 -34 -4 -34 -5 8 -2 36 3 50 25 73 31 33 18 37 -21 7 -37 -29 -33
-6 10 57 20 29 33 57 30 63 -11 18 -26 13 -26 -8 0 -11 -10 -32 -23 -48 -41
-51 -60 -85 -49 -92 6 -3 15 -29 20 -56 5 -28 13 -58 17 -68 14 -32 -56 -15
-106 27 -28 24 -28 24 -8 38 18 11 11 12 -53 8 -66 -5 -81 -11 -158 -58 -46
-29 -96 -56 -110 -59 -24 -6 -133 45 -243 114 l-37 23 0 89 c0 99 12 134 71
216 22 30 41 72 48 105 15 73 41 198 48 233 3 17 -1 41 -12 61 -18 33 -18 34
5 66 13 18 38 39 57 46 19 8 36 21 39 29 4 8 10 12 15 9 5 -3 5 -13 -1 -24 -5
-10 -10 -27 -9 -37 1 -29 58 99 59 131 0 49 39 164 66 196 l26 30 110 -1 c61
0 114 3 119 8 5 5 2 30 -7 58 -35 109 -47 209 -47 390 -1 99 4 199 10 222 11
45 94 165 100 146 2 -6 -5 -32 -16 -57 -12 -25 -21 -54 -21 -66 0 -12 -4 -29
-9 -38 -5 -9 -12 -44 -15 -77 -5 -43 -4 -54 4 -37 13 30 30 28 30 -5 0 -16 6
-36 14 -45 11 -15 14 -11 30 32 10 27 16 55 13 62 -3 8 -6 6 -6 -4 -1 -10 -5
-18 -11 -18 -13 0 -13 3 9 83 20 73 33 92 81 121 l32 18 -28 -41 c-15 -23 -24
-44 -21 -47 3 -3 18 14 34 38 29 45 60 78 75 78 10 0 10 -10 -1 -46 -5 -16
-14 -56 -21 -89 -24 -123 -27 -130 -64 -143 -51 -19 -103 -84 -117 -148 -13
-57 -1 -91 28 -80 7 3 19 -3 25 -14 15 -23 30 -27 22 -5 -9 23 24 19 38 -5 19
-31 104 -28 152 5 40 27 49 18 14 -15 -36 -34 -83 -38 -168 -14 -24 6 -24 6
-7 -12 14 -15 32 -19 92 -19 63 0 77 3 99 24 41 39 56 82 56 165 l0 76 -47 23
c-27 14 -65 27 -85 31 -42 8 -47 22 -22 61 9 15 13 33 9 47 -4 16 -3 19 3 10
7 -11 17 0 40 40 17 30 41 63 52 73 19 17 22 17 37 2 17 -16 16 -27 -14 -156
-4 -17 -2 -22 6 -17 6 4 11 18 11 31 0 22 81 190 115 237 19 28 25 10 8 -23
-30 -60 -62 -194 -62 -254 1 -38 1 -39 9 -11 5 15 16 36 26 47 11 12 14 27 10
44 -8 30 21 135 65 239 16 37 29 72 29 77 0 22 -22 5 -61 -46 -23 -31 -44 -53
-47 -51 -3 3 1 12 7 20 8 10 9 16 2 21 -6 3 -37 -21 -70 -54 -59 -62 -77 -71
-99 -49 -8 8 -8 17 3 37 20 37 36 93 29 100 -10 10 -54 -48 -48 -64 7 -18 -12
-20 -20 -2 -3 6 -3 2 0 -10 7 -31 -4 -63 -23 -63 -9 0 -13 6 -10 14 4 10 1 13
-9 9 -7 -3 -14 -9 -14 -13 0 -4 -19 -18 -42 -30 -24 -12 -47 -27 -51 -34 -22
-29 8 55 48 136 25 50 45 95 45 101 0 10 -38 -36 -60 -73 -8 -12 -11 -12 -18
-3 -6 9 -26 -1 -72 -38 l-63 -51 6 53 c7 54 7 54 -9 24 -52 -100 -87 -265 -93
-445 l-6 -155 -8 120 c-9 138 -18 227 -23 223 -9 -10 -34 -267 -35 -368 -1
-115 -10 -180 -22 -150 -3 8 -13 71 -23 140 -9 69 -22 158 -28 199 l-12 75
-18 -77 c-10 -42 -21 -77 -25 -77 -4 0 -13 80 -21 178 -21 272 -31 235 85 307
96 60 297 165 380 200 22 9 54 23 70 30 76 34 224 71 385 96 102 17 151 19
270 13 182 -8 421 -52 454 -83 25 -24 56 -82 91 -171 22 -56 22 -58 4 -63 -15
-4 -19 -14 -19 -46 0 -59 -20 -192 -33 -222 -10 -21 -12 -4 -12 101 0 119 -2
130 -28 182 -30 60 -87 123 -87 97 0 -9 11 -48 25 -88 13 -41 22 -77 19 -82
-3 -5 -10 -63 -15 -130 -6 -66 -17 -135 -24 -152 l-14 -32 -1 28 c0 15 -9 40
-21 56 -11 15 -31 68 -44 117 -34 127 -36 134 -46 128 -5 -3 -9 6 -9 20 0 14
-4 27 -9 31 -15 8 -23 -30 -20 -92 l3 -58 -44 -8 c-39 -8 -45 -7 -61 15 -10
12 -23 34 -30 48 -6 14 -15 33 -20 42 -5 10 -9 24 -9 31 0 7 -7 22 -15 33 -13
17 -14 4 -14 -121 1 -113 3 -131 10 -95 6 25 8 61 5 80 -3 19 -2 41 3 49 9 14
13 1 31 -109 5 -30 13 -63 19 -75 5 -11 14 -46 19 -77 10 -64 12 -60 -59 -72
-21 -4 -42 -13 -49 -21 -20 -24 -33 -18 -26 13 5 20 4 23 -4 12 -5 -8 -10 -25
-10 -36 0 -12 -7 -35 -15 -50 -9 -19 -14 -54 -14 -99 1 -38 3 -62 6 -52 6 23
26 22 48 -3 20 -23 74 -27 94 -7 10 10 11 9 6 -5 -4 -10 -13 -18 -21 -18 -8 0
-14 -4 -14 -10 0 -19 29 -10 58 19 31 31 62 89 62 114 0 9 5 19 10 22 6 4 10
-15 10 -49 0 -57 8 -68 30 -41 15 18 6 95 -16 137 -8 15 -14 41 -14 58 0 20
-5 30 -15 30 -10 0 -15 10 -15 33 -1 17 -7 60 -14 94 -15 68 -9 83 32 83 l25
0 -5 -87 c-3 -49 -4 -74 -1 -58 2 17 9 34 14 40 5 5 9 26 9 48 0 26 4 37 13
35 9 -4 13 -50 15 -177 3 -177 8 -194 37 -124 18 42 27 38 30 -14 2 -34 -10
-65 -100 -268 -8 -16 -23 -51 -34 -76 -21 -49 -67 -83 -194 -143 -128 -60
-204 -79 -327 -80 -125 -1 -234 17 -257 43 -8 9 -23 27 -34 41 -14 19 -13 12
6 -25 14 -27 53 -75 86 -107 57 -53 61 -58 54 -90 -4 -18 -14 -46 -22 -63
l-14 -30 25 30 c14 17 26 37 26 46 0 19 24 42 33 32 4 -3 7 -3 7 1 0 5 -11 17
-25 28 -17 13 -25 29 -25 49 l0 30 103 -3 102 -3 3 -43 c3 -37 5 -40 18 -28
13 13 21 11 72 -16 112 -61 134 -78 127 -96 -4 -9 -10 -25 -12 -34 -3 -10 -14
-18 -24 -18 -11 0 -19 -7 -19 -15 0 -9 9 -15 21 -15 49 0 120 -67 135 -126 4
-16 16 -44 26 -62 10 -18 18 -50 18 -72 0 -35 -3 -40 -22 -40 -20 -1 -21 -2
-6 -10 10 -7 14 -18 11 -32 l-5 -23 16 22 c10 13 21 49 27 80 28 166 -56 369
-162 390 -60 12 -62 56 -5 134 99 135 306 129 430 -13 55 -63 119 -188 146
-288 29 -106 29 -294 0 -388 -33 -107 -107 -247 -144 -275 -6 -4 2 -5 17 -1
18 4 34 1 45 -8 14 -13 21 -13 42 -2 l25 14 -31 0 c-43 0 -49 22 -19 70 14 22
25 42 25 45 0 3 12 29 26 58 14 28 29 72 35 97 5 25 14 70 20 100 33 164 -41
429 -163 579 l-49 61 26 27 c21 23 25 25 25 10 0 -34 34 -13 62 38 30 54 31
53 32 -17 1 -26 5 -48 11 -49 15 -3 61 82 81 148 26 92 28 92 34 13 l5 -75 15
35 c12 29 15 95 15 365 0 331 -1 349 -42 565 -24 129 -29 117 80 209 53 46 97
87 97 91 0 33 -292 164 -413 186 -30 5 -65 30 -160 116 -253 228 -457 330
-765 382 -127 22 -148 20 -222 -21z m225 -3 c17 -5 50 -12 75 -16 52 -8 193
-52 265 -83 120 -53 273 -162 410 -293 98 -93 90 -89 288 -139 21 -5 45 -13
55 -18 9 -5 52 -25 94 -45 102 -48 117 -72 28 -46 -67 21 -307 39 -501 40
-191 0 -454 -21 -506 -41 -13 -5 -35 -9 -49 -9 -52 0 -546 -133 -596 -160 -10
-6 -25 -10 -34 -10 -9 0 -30 -6 -47 -14 -43 -18 -163 -61 -212 -76 -22 -7 -44
-16 -49 -21 -6 -5 -16 -9 -22 -9 -12 0 -109 -42 -179 -76 l-30 -15 35 5 c18 4
36 10 40 14 3 4 23 12 45 18 22 6 48 15 58 19 15 6 17 0 17 -56 0 -100 -6
-112 -49 -106 -55 9 -155 31 -166 38 -5 4 -25 10 -42 14 -18 3 -33 10 -33 14
0 4 23 33 51 65 52 57 143 134 230 193 44 30 47 36 69 120 46 178 109 304 220
436 21 26 155 134 205 165 22 14 75 44 118 67 69 37 84 42 130 38 29 -3 66 -8
82 -13z m1193 -656 c51 -4 91 -10 90 -13 -7 -15 -146 -141 -155 -141 -6 0 -21
24 -33 53 -12 28 -31 64 -41 79 -26 36 -24 41 14 34 17 -3 74 -8 125 -12z
m-120 -96 c23 -49 44 -117 39 -130 -3 -8 -6 -6 -6 6 -1 11 -14 43 -31 73 -16
29 -30 57 -30 63 0 18 16 11 28 -12z m-948 -232 c0 -5 -51 -101 -58 -108 -4
-4 -15 -1 -24 6 -15 11 -13 17 23 59 34 40 59 58 59 43z m1017 -68 c-2 -13 -4
-5 -4 17 -1 22 1 32 4 23 2 -10 2 -28 0 -40z m-1822 -35 c-5 -10 -12 -52 -16
-93 -5 -41 -13 -95 -18 -120 -6 -25 -20 -103 -31 -173 -12 -71 -25 -138 -30
-150 -8 -20 -9 -19 -9 8 -1 17 4 116 9 222 5 106 6 202 1 215 -6 17 -9 9 -14
-38 -7 -71 -55 -328 -77 -414 -12 -47 -3 87 10 150 5 25 16 107 25 184 16 143
19 156 37 156 5 0 28 16 51 35 44 38 74 47 62 18z m669 -2 c3 -5 -1 -14 -9
-21 -8 -7 -15 -17 -15 -22 0 -5 -6 -16 -14 -24 -8 -7 -16 -19 -19 -26 -2 -7
-7 -10 -11 -7 -3 3 0 21 7 40 8 19 17 42 20 52 7 18 32 23 41 8z m1104 -138
c-3 -84 -1 -100 9 -90 15 15 33 110 33 174 0 88 18 48 29 -65 6 -64 16 -153
22 -197 10 -78 4 -149 -11 -126 -4 7 -12 -28 -19 -76 -20 -149 -56 -299 -73
-309 -6 -4 -6 10 -1 33 4 21 7 88 6 148 -1 97 -6 123 -37 220 -31 94 -35 103
-31 60 18 -190 17 -182 2 -153 -8 14 -18 46 -22 70 -4 24 -16 77 -28 118 -23
83 -23 82 -12 229 7 82 10 99 18 80 12 -30 15 -179 4 -237 -6 -33 -4 -43 5
-40 32 11 87 149 96 243 9 94 15 45 10 -82z m-195 -153 c-7 -28 -13 -25 -13 6
0 14 4 23 9 20 5 -3 7 -15 4 -26z m-863 -40 c0 -24 -32 -27 -50 -5 -10 12 -10
18 0 30 16 19 50 2 50 -25z m674 -2 c18 -25 13 -38 -15 -38 -22 0 -34 22 -25
45 8 21 22 19 40 -7z m-1587 -285 c-3 -10 -5 -4 -5 12 0 17 2 24 5 18 2 -7 2
-21 0 -30z m480 -35 c-3 -7 -5 -2 -5 12 0 14 2 19 5 13 2 -7 2 -19 0 -25z
m1301 -170 c-5 -24 -12 -55 -15 -69 -4 -20 -10 -25 -24 -22 -41 11 -42 29 -3
82 21 28 41 51 45 51 3 0 2 -19 -3 -42z m-408 -106 c0 -5 -9 -18 -20 -30 -11
-11 -27 -39 -36 -61 -9 -23 -20 -41 -25 -41 -6 0 -32 11 -59 25 -64 32 -68 60
-10 70 21 4 61 15 87 25 55 22 63 23 63 12z m-452 -50 c6 -18 -15 -14 -22 4
-4 10 -1 14 6 12 6 -2 14 -10 16 -16z m569 -324 c-3 -8 -6 -5 -6 6 -1 11 2 17
5 13 3 -3 4 -12 1 -19z m20 -75 c-3 -10 -5 -4 -5 12 0 17 2 24 5 18 2 -7 2
-21 0 -30z m-190 -420 c-3 -10 -5 -2 -5 17 0 19 2 27 5 18 2 -10 2 -26 0 -35z
m443 -293 c0 -5 6 -10 14 -10 13 0 26 -29 39 -88 4 -17 -6 -32 -46 -67 -28
-25 -55 -41 -58 -37 -4 4 -9 27 -12 51 -3 31 -11 50 -27 63 -25 20 -21 30 29
76 25 23 61 30 61 12z m-1103 -42 c-3 -7 -5 -2 -5 12 0 14 2 19 5 13 2 -7 2
-19 0 -25z m270 -24 c-3 -3 -12 -4 -19 -1 -8 3 -5 6 6 6 11 1 17 -2 13 -5z
m-114 -31 c-7 -2 -21 -2 -30 0 -10 3 -4 5 12 5 17 0 24 -2 18 -5z m804 -50
c-3 -10 -5 -4 -5 12 0 17 2 24 5 18 2 -7 2 -21 0 -30z m-27 -27 c0 -13 7 -40
15 -59 19 -46 19 -91 0 -107 -8 -7 -48 -16 -88 -20 -39 -5 -87 -11 -104 -15
-18 -4 -33 -4 -33 1 0 16 53 114 62 114 4 0 36 27 70 59 35 33 66 57 70 55 5
-3 8 -16 8 -28z m170 -41 c0 -17 -33 -66 -49 -75 -26 -14 -31 -13 -25 5 4 8 1
15 -5 15 -21 0 -11 20 14 26 13 3 29 12 36 20 11 14 29 19 29 9z"/>
<path d="M1975 3768 c17 -6 42 -19 57 -29 14 -11 29 -19 32 -19 16 0 118 -79
180 -139 73 -70 76 -57 4 20 -83 89 -192 159 -268 173 l-35 6 30 -12z"/>
<path d="M1716 3688 c-77 -77 -113 -130 -153 -228 -37 -93 -64 -172 -60 -177
5 -4 18 23 68 137 47 110 106 203 177 278 68 73 45 65 -32 -10z"/>
<path d="M2199 3336 c-2 -2 -53 -11 -114 -20 -111 -15 -300 -60 -320 -75 -5
-5 -28 -12 -50 -16 -22 -4 -44 -10 -50 -15 -5 -4 -41 -18 -78 -30 -65 -22 -94
-40 -63 -40 8 0 27 6 43 14 127 63 483 148 692 165 68 6 126 13 129 16 3 3
-37 5 -90 5 -52 0 -97 -2 -99 -4z"/>
<path d="M1450 3125 c-33 -19 -10 -19 26 0 16 8 22 15 14 15 -8 -1 -26 -7 -40
-15z"/>
<path d="M946 2744 c-11 -8 -16 -14 -10 -14 13 0 39 18 34 24 -3 2 -14 -2 -24
-10z"/>
<path d="M2280 2713 c-8 -16 -19 -35 -26 -43 -6 -8 -30 -64 -52 -125 -28 -75
-41 -101 -41 -81 -2 59 -14 14 -14 -49 0 -76 9 -94 19 -39 3 22 10 44 14 49 4
6 17 37 30 70 20 50 58 125 63 125 1 0 1 -42 0 -92 0 -51 1 -79 3 -63 24 178
49 196 49 35 0 -69 5 -127 12 -141 6 -13 16 -37 20 -53 5 -17 14 -31 19 -33
14 -5 91 105 99 140 4 15 11 30 16 33 11 6 12 44 1 44 -4 0 -20 -27 -36 -60
-29 -61 -51 -88 -63 -76 -12 11 -22 134 -22 264 l-1 122 -38 0 c-32 0 -41 -5
-52 -27z"/>
<path d="M1771 2572 c-7 -13 -11 -26 -8 -28 8 -8 29 25 25 38 -3 8 -9 4 -17
-10z"/>
<path d="M2531 2484 c0 -11 3 -14 6 -6 3 7 2 16 -1 19 -3 4 -6 -2 -5 -13z"/>
<path d="M2495 2154 c9 -9 19 -13 23 -10 3 4 0 11 -8 16 -24 15 -33 11 -15 -6z"/>
<path d="M2548 2133 c6 -2 18 -2 25 0 6 3 1 5 -13 5 -14 0 -19 -2 -12 -5z"/>
<path d="M2146 1981 c-4 -6 26 -9 76 -8 46 1 91 -2 102 -7 14 -7 18 -6 14 5
-5 17 -182 26 -192 10z"/>
<path d="M1832 1911 c20 -26 48 -47 48 -36 0 5 -61 65 -67 65 -2 0 6 -13 19
-29z"/>
<path d="M1707 1874 c-27 -27 -43 -90 -34 -135 3 -19 5 -17 6 9 0 18 5 40 9
50 5 9 15 31 23 47 12 24 22 31 52 33 46 4 49 22 3 22 -22 0 -42 -8 -59 -26z"/>
<path d="M1828 1857 c12 -13 22 -30 22 -38 0 -8 4 -19 9 -24 5 -6 11 -21 14
-35 3 -19 5 -17 6 10 1 37 -39 110 -61 110 -6 0 -2 -10 10 -23z"/>
<path d="M1451 1852 c-50 -25 -74 -74 -67 -141 8 -88 24 -83 22 7 -1 65 2 84
17 100 39 43 92 34 139 -22 10 -12 17 -16 18 -9 0 16 -67 83 -83 83 -7 -1 -27
-9 -46 -18z"/>
<path d="M1737 1673 c-4 -3 -7 -19 -7 -35 0 -32 27 -49 41 -27 14 22 11 39 -7
39 -10 0 -14 6 -10 15 5 15 -5 20 -17 8z"/>
<path d="M1525 1618 c-9 -23 13 -60 33 -56 9 2 18 13 20 26 3 16 -2 22 -16 22
-11 0 -22 6 -25 13 -3 8 -7 7 -12 -5z"/>
<path d="M2320 1602 c0 -12 19 -26 26 -19 2 2 -2 10 -11 17 -9 8 -15 8 -15 2z"/>
<path d="M2360 1566 c0 -2 8 -10 18 -17 15 -13 16 -12 3 4 -13 16 -21 21 -21
13z"/>
<path d="M1261 1503 c-1 -21 11 -37 51 -68 37 -30 38 -22 2 11 -23 22 -44 48
-47 59 -4 18 -5 18 -6 -2z"/>
<path d="M1933 1379 c-19 -23 -20 -29 -9 -38 10 -8 16 -9 21 -1 10 16 22 12
28 -10 3 -11 13 -20 22 -20 9 0 14 -4 11 -9 -10 -16 13 -61 31 -61 13 0 9 -9
-18 -36 -33 -34 -34 -35 -40 -12 -3 15 -12 23 -26 22 -17 0 -19 5 -16 32 2 25
-1 33 -17 37 -14 3 -20 13 -20 32 0 15 -3 25 -7 23 -5 -2 -29 -14 -55 -26 -51
-23 -64 -38 -24 -28 21 5 25 1 34 -37 6 -23 23 -54 37 -69 23 -25 33 -28 86
-28 53 0 64 3 89 28 40 40 49 96 23 142 -10 19 -25 34 -31 33 -7 -2 -11 2 -9
9 1 6 -18 19 -43 28 l-45 16 -22 -27z m-33 -130 c0 -5 -7 -9 -15 -9 -9 0 -12
6 -9 15 6 15 24 11 24 -6z m67 -85 c-3 -3 -12 -4 -19 -1 -8 3 -5 6 6 6 11 1
17 -2 13 -5z"/>
<path d="M2450 1371 c0 -6 5 -13 10 -16 6 -3 10 1 10 9 0 9 -4 16 -10 16 -5 0
-10 -4 -10 -9z"/>
<path d="M2155 1330 c3 -5 8 -10 11 -10 2 0 4 5 4 10 0 6 -5 10 -11 10 -5 0
-7 -4 -4 -10z"/>
<path d="M2360 1319 c0 -5 5 -7 10 -4 6 3 10 8 10 11 0 2 -4 4 -10 4 -5 0 -10
-5 -10 -11z"/>
<path d="M1485 1300 c4 -6 2 -17 -4 -24 -6 -7 -9 -20 -5 -29 3 -10 -2 -18 -16
-22 -14 -4 -19 -12 -16 -22 3 -8 6 -19 6 -24 0 -5 11 -9 25 -9 18 0 25 -5 25
-20 0 -12 7 -20 18 -20 28 0 46 16 38 35 -4 12 0 18 14 22 25 7 25 6 -5 39
-14 15 -25 31 -25 35 0 5 11 9 25 9 14 0 25 -5 25 -11 0 -11 66 -8 150 8 36 7
22 9 -70 8 -91 0 -122 4 -147 18 -37 20 -47 21 -38 7z"/>
<path d="M2116 1283 c-3 -10 -2 -31 3 -48 9 -28 9 -27 10 18 1 49 -4 60 -13
30z"/>
<path d="M1372 1240 c0 -14 2 -19 5 -12 2 6 2 18 0 25 -3 6 -5 1 -5 -13z"/>
<path d="M1777 1224 c-11 -11 -8 -44 3 -44 15 0 24 30 13 41 -5 5 -12 6 -16 3z"/>
<path d="M1697 1203 c-4 -3 -7 -15 -7 -25 0 -26 24 -17 28 10 3 21 -8 29 -21
15z"/>
<path d="M2101 1193 c-1 -6 -4 -20 -7 -30 -5 -17 -5 -17 6 0 6 10 9 23 6 30
-3 9 -5 9 -5 0z"/>
<path d="M1360 1173 c0 -5 5 -15 10 -23 8 -12 10 -11 10 8 0 12 -4 22 -10 22
-5 0 -10 -3 -10 -7z"/>
<path d="M1890 1143 c1 -23 22 -34 78 -39 48 -5 67 -3 87 10 14 9 25 21 25 27
0 5 -10 1 -22 -11 -28 -26 -83 -26 -126 0 -36 22 -42 24 -42 13z"/>
<path d="M1621 1091 c-8 -14 -6 -22 7 -34 16 -14 17 -13 17 19 0 38 -9 44 -24
15z"/>
<path d="M2082 1042 c-7 -5 16 -7 50 -5 91 6 103 11 28 12 -36 0 -71 -3 -78
-7z"/>
<path d="M1889 1023 c-12 -15 -12 -16 4 -10 10 4 30 7 43 7 13 0 24 5 24 10 0
17 -57 11 -71 -7z"/>
<path d="M2008 1033 c6 -2 18 -2 25 0 6 3 1 5 -13 5 -14 0 -19 -2 -12 -5z"/>
<path d="M1550 1007 c0 -15 4 -27 9 -27 17 0 19 15 5 35 -13 18 -14 18 -14 -8z"/>
<path d="M1708 1013 c6 -2 18 -2 25 0 6 3 1 5 -13 5 -14 0 -19 -2 -12 -5z"/>
<path d="M1865 960 c-5 -28 -3 -46 7 -57 8 -10 15 -55 18 -127 l5 -111 130 2
c139 2 207 12 203 28 -2 6 -7 8 -13 7 -5 -2 -76 -6 -157 -9 l-146 -6 5 39 c2
21 0 64 -4 95 -11 68 -6 83 30 86 186 13 281 24 293 34 8 6 14 23 13 38 l-1
26 -9 -26 c-9 -26 -13 -27 -107 -31 -53 -3 -131 -5 -172 -4 -71 1 -75 2 -72
23 6 40 -16 33 -23 -7z"/>
<path d="M1553 920 c0 -25 2 -35 4 -22 2 12 2 32 0 45 -2 12 -4 2 -4 -23z"/>
<path d="M2221 795 c0 -55 2 -75 9 -65 11 17 11 71 0 115 -6 22 -8 8 -9 -50z"/>
<path d="M2013 810 c0 -30 2 -43 4 -27 2 15 2 39 0 55 -2 15 -4 2 -4 -28z"/>
<path d="M2091 818 c1 -13 5 -36 9 -53 7 -27 8 -25 9 17 0 26 -3 50 -9 53 -6
3 -9 -4 -9 -17z"/>
<path d="M3060 770 c-10 -6 3 -10 44 -12 55 -3 61 -6 90 -41 22 -27 27 -40 18
-46 -8 -5 2 -17 30 -39 93 -69 166 -176 194 -284 16 -59 16 -72 4 -123 -18
-75 -57 -134 -120 -184 -57 -45 -48 -56 11 -16 41 29 87 82 115 135 14 27 18
56 19 125 0 81 -3 97 -32 158 -23 47 -55 91 -107 144 -41 42 -80 89 -87 105
-6 16 -24 42 -39 58 -24 25 -36 30 -77 30 -26 0 -55 -4 -63 -10z"/>
<path d="M3170 660 c0 -24 -8 -25 -32 -3 -10 9 -21 14 -24 11 -8 -9 55 -50 66
-43 13 8 13 55 0 55 -5 0 -10 -9 -10 -20z"/>
<path d="M2500 40 c-62 -9 -121 -30 -103 -37 6 -2 29 0 50 6 49 14 162 14 217
0 24 -6 54 -9 67 -7 18 2 11 7 -31 21 -71 22 -131 27 -200 17z"/>
</g>
</svg>
